<svg width="491" height="491" viewBox="0 0 491 491" fill="none" xmlns="http://www.w3.org/2000/svg">
<g clip-path="url(#clip0_284_2)">
<path d="M490.4 245.2C490.4 110 380.4 0 245.2 0C110 0 0 110 0 245.2C0 380.4 110 490.4 245.2 490.4C380.4 490.4 490.4 380.4 490.4 245.2ZM24.5 245.2C24.5 123.5 123.5 24.5 245.2 24.5C366.9 24.5 465.9 123.5 465.9 245.2C465.9 366.9 366.9 465.9 245.2 465.9C123.5 465.9 24.5 366.9 24.5 245.2Z" fill="#E14A4A"/>
<path d="M253.9 360.4L322.8 291.5C327.6 286.7 327.6 279 322.8 274.2C318 269.4 310.3 269.4 305.5 274.2L257.5 322.2V138.7C257.5 131.9 252 126.4 245.2 126.4C238.4 126.4 232.9 131.9 232.9 138.7V322.1L184.9 274.1C180.1 269.3 172.4 269.3 167.6 274.1C162.8 278.9 162.8 286.6 167.6 291.4L236.5 360.3C238.9 362.7 242 363.9 245.2 363.9C248.4 363.9 251.5 362.8 253.9 360.4Z" fill="#E14A4A"/>
</g>
<defs>
<clipPath id="clip0_284_2">
<rect width="490.4" height="490.4" fill="white"/>
</clipPath>
</defs>
</svg>
