<svg width="48" height="48" viewBox="0 0 48 48" fill="none" xmlns="http://www.w3.org/2000/svg">
<path d="M48 24C48 19.2533 46.5924 14.6131 43.9553 10.6663C41.3181 6.71954 37.5698 3.6434 33.1844 1.8269C28.799 0.0103984 23.9734 -0.464881 19.3178 0.461164C14.6623 1.38721 10.3859 3.67299 7.02945 7.02945C3.67299 10.3859 1.38721 14.6623 0.461164 19.3178C-0.464881 23.9734 0.0103984 28.799 1.8269 33.1844C3.6434 37.5698 6.71954 41.3181 10.6663 43.9553C14.6131 46.5924 19.2533 48 24 48C30.3613 47.9873 36.4584 45.4547 40.9566 40.9566C45.4547 36.4584 47.9873 30.3613 48 24V24ZM24.96 46.056V28.8H31.68C31.9346 28.8 32.1788 28.6989 32.3588 28.5188C32.5389 28.3388 32.64 28.0946 32.64 27.84C32.64 27.5854 32.5389 27.3412 32.3588 27.1612C32.1788 26.9811 31.9346 26.88 31.68 26.88H24.96V20.16C24.9663 18.8889 25.4741 17.6717 26.3729 16.7729C27.2717 15.8741 28.4889 15.3663 29.76 15.36H33.6C33.8546 15.36 34.0988 15.2589 34.2788 15.0788C34.4589 14.8988 34.56 14.6546 34.56 14.4C34.56 14.1454 34.4589 13.9012 34.2788 13.7212C34.0988 13.5412 33.8546 13.44 33.6 13.44H29.76C27.9797 13.4463 26.2741 14.1564 25.0152 15.4152C23.7564 16.6741 23.0463 18.3797 23.04 20.16V26.88H16.32C16.0654 26.88 15.8212 26.9811 15.6412 27.1612C15.4611 27.3412 15.36 27.5854 15.36 27.84C15.36 28.0946 15.4611 28.3388 15.6412 28.5188C15.8212 28.6989 16.0654 28.8 16.32 28.8H23.04V46.056C17.2726 45.805 11.8329 43.3053 7.88621 39.0923C3.9395 34.8793 1.7997 29.2882 1.92523 23.5168C2.05076 17.7453 4.43162 12.2525 8.55777 8.21514C12.6839 4.17775 18.2272 1.91689 24 1.91689C29.7728 1.91689 35.3161 4.17775 39.4422 8.21514C43.5684 12.2525 45.9493 17.7453 46.0748 23.5168C46.2003 29.2882 44.0605 34.8793 40.1138 39.0923C36.1671 43.3053 30.7274 45.805 24.96 46.056V46.056Z" fill="#202020"/>
</svg>
