<svg width="49" height="48" viewBox="0 0 49 48" fill="none" xmlns="http://www.w3.org/2000/svg">
<path d="M24.834 18.6327C23.6735 18.6327 22.5391 18.9768 21.5743 19.6215C20.6094 20.2662 19.8573 21.1825 19.4133 22.2547C18.9692 23.3268 18.853 24.5065 19.0794 25.6447C19.3058 26.7828 19.8646 27.8283 20.6851 28.6488C21.5057 29.4694 22.5512 30.0282 23.6893 30.2546C24.8275 30.481 26.0072 30.3648 27.0793 29.9207C28.1514 29.4766 29.0678 28.7246 29.7125 27.7597C30.3572 26.7948 30.7013 25.6605 30.7013 24.5C30.7013 22.9439 30.0832 21.4515 28.9828 20.3512C27.8825 19.2508 26.3901 18.6327 24.834 18.6327ZM24.834 28.8367C23.9763 28.8367 23.1378 28.5824 22.4246 28.1059C21.7115 27.6293 21.1556 26.952 20.8274 26.1596C20.4991 25.3672 20.4132 24.4952 20.5806 23.6539C20.7479 22.8127 21.1609 22.04 21.7674 21.4335C22.374 20.827 23.1467 20.4139 23.9879 20.2466C24.8292 20.0793 25.7011 20.1651 26.4936 20.4934C27.286 20.8216 27.9633 21.3775 28.4398 22.0906C28.9164 22.8038 29.1707 23.6423 29.1707 24.5C29.1674 25.6491 28.7094 26.7502 27.8968 27.5628C27.0842 28.3754 25.9831 28.8334 24.834 28.8367ZM30.4462 12H19.2217C17.395 12 15.6431 12.7257 14.3514 14.0174C13.0597 15.3091 12.334 17.061 12.334 18.8878V30.1122C12.334 31.939 13.0597 33.6909 14.3514 34.9826C15.6431 36.2743 17.395 37 19.2217 37H30.4462C32.273 37 34.0249 36.2743 35.3166 34.9826C36.6083 33.6909 37.334 31.939 37.334 30.1122V18.8878C37.334 17.061 36.6083 15.3091 35.3166 14.0174C34.0249 12.7257 32.273 12 30.4462 12ZM35.8034 30.1122C35.8034 31.533 35.239 32.8957 34.2343 33.9003C33.2296 34.905 31.867 35.4694 30.4462 35.4694H19.2217C17.8009 35.4694 16.4383 34.905 15.4337 33.9003C14.429 32.8957 13.8646 31.533 13.8646 30.1122V18.8878C13.8646 17.467 14.429 16.1043 15.4337 15.0997C16.4383 14.095 17.8009 13.5306 19.2217 13.5306H30.4462C31.867 13.5306 33.2296 14.095 34.2343 15.0997C35.239 16.1043 35.8034 17.467 35.8034 18.8878V30.1122ZM32.7421 17.8673C32.7421 18.1196 32.6673 18.3662 32.5272 18.576C32.387 18.7857 32.1878 18.9492 31.9548 19.0458C31.7217 19.1423 31.4652 19.1676 31.2178 19.1183C30.9704 19.0691 30.7431 18.9477 30.5647 18.7693C30.3863 18.5909 30.2649 18.3636 30.2156 18.1162C30.1664 17.8688 30.1917 17.6123 30.2882 17.3792C30.3848 17.1462 30.5482 16.947 30.758 16.8068C30.9678 16.6666 31.2144 16.5918 31.4666 16.5918C31.8049 16.5918 32.1294 16.7262 32.3686 16.9654C32.6078 17.2046 32.7421 17.5291 32.7421 17.8673Z" fill="white"/>
<mask id="path-2-inside-1_271_34" fill="white">
<path d="M48.334 24C48.334 37.2548 37.5888 48 24.334 48C11.0792 48 0.333984 37.2548 0.333984 24C0.333984 10.7452 11.0792 0 24.334 0C37.5888 0 48.334 10.7452 48.334 24Z"/>
</mask>
<path d="M46.634 24C46.634 36.316 36.6499 46.3 24.334 46.3V49.7C38.5277 49.7 50.034 38.1937 50.034 24H46.634ZM24.334 46.3C12.018 46.3 2.03398 36.316 2.03398 24H-1.36602C-1.36602 38.1937 10.1403 49.7 24.334 49.7V46.3ZM2.03398 24C2.03398 11.684 12.018 1.7 24.334 1.7V-1.7C10.1403 -1.7 -1.36602 9.80628 -1.36602 24H2.03398ZM24.334 1.7C36.6499 1.7 46.634 11.684 46.634 24H50.034C50.034 9.80628 38.5277 -1.7 24.334 -1.7V1.7Z" fill="white" mask="url(#path-2-inside-1_271_34)"/>
</svg>
