<svg width="49" height="48" viewBox="0 0 49 48" fill="none" xmlns="http://www.w3.org/2000/svg">
<g clip-path="url(#clip0_271_28)">
<path d="M24.6658 -0.0507812C11.4043 -0.0507812 0.613281 10.7372 0.613281 24.0002C0.613281 37.2632 11.4043 48.0512 24.6658 48.0512C37.9273 48.0512 48.7183 37.2632 48.7183 24.0002C48.7183 10.7372 37.9273 -0.0507812 24.6658 -0.0507812ZM24.6658 46.4492C12.2878 46.4492 2.21828 36.3782 2.21828 24.0002C2.21828 11.6222 12.2878 1.55122 24.6658 1.55122C37.0438 1.55122 47.1133 11.6222 47.1133 24.0002C47.1133 36.3782 37.0438 46.4492 24.6658 46.4492Z" fill="white"/>
<path d="M37.8571 16.5692C38.0234 16.2612 38.1605 15.9383 38.2666 15.6047C38.3156 15.45 38.3166 15.284 38.2694 15.1287C38.2222 14.9733 38.1289 14.836 38.002 14.7348C37.8751 14.6335 37.7205 14.5732 37.5586 14.5616C37.3966 14.5501 37.235 14.588 37.0951 14.6702C36.3264 15.1268 35.4944 15.467 34.6261 15.6797C33.572 14.7284 32.203 14.201 30.7831 14.1992C30.0116 14.1998 29.2483 14.3562 28.5387 14.6589C27.8292 14.9617 27.1881 15.4046 26.6539 15.9611C26.1196 16.5176 25.7033 17.1762 25.4297 17.8975C25.1562 18.6188 25.0312 19.3879 25.0621 20.1587C21.6886 19.734 18.6081 18.027 16.4596 15.3917C16.3772 15.2919 16.272 15.2134 16.1529 15.1629C16.0337 15.1124 15.9042 15.0914 15.7752 15.1018C15.6462 15.1121 15.5216 15.1534 15.412 15.2221C15.3024 15.2909 15.211 15.3851 15.1456 15.4967C14.6536 16.3411 14.3862 17.2975 14.3689 18.2746C14.3515 19.2517 14.5848 20.2169 15.0466 21.0782C14.9333 21.0973 14.8245 21.137 14.7256 21.1952C14.6043 21.2726 14.5044 21.3792 14.4352 21.5053C14.366 21.6314 14.3297 21.7729 14.3296 21.9167C14.3296 23.6192 15.0871 25.1822 16.3081 26.2442L16.2556 26.2967C16.1634 26.401 16.1 26.5275 16.0715 26.6637C16.0431 26.8 16.0507 26.9413 16.0936 27.0737C16.3482 27.868 16.7733 28.5971 17.3392 29.2098C17.905 29.8226 18.598 30.3043 19.3696 30.6212C17.7849 31.3942 16.0116 31.6957 14.2606 31.4897C14.0806 31.4714 13.8996 31.5133 13.7459 31.6088C13.5923 31.7044 13.4747 31.8482 13.4116 32.0177C13.3509 32.1885 13.3498 32.3748 13.4083 32.5464C13.4669 32.7179 13.5816 32.8646 13.7341 32.9627C16.1146 34.4905 18.8839 35.3022 21.7126 35.3012C30.9826 35.3012 36.5236 27.7712 36.5236 20.4917L36.5221 20.2457C37.4204 19.5443 38.2008 18.7037 38.8336 17.7557C38.9294 17.6124 38.9765 17.442 38.9679 17.2699C38.9594 17.0977 38.8956 16.9328 38.7861 16.7997C38.6765 16.6666 38.527 16.5723 38.3597 16.5308C38.1924 16.4893 38.0161 16.5028 37.8571 16.5692V16.5692ZM35.2396 19.2017C35.1307 19.28 35.0432 19.3843 34.985 19.5051C34.9269 19.6259 34.8999 19.7593 34.9066 19.8932C34.9156 20.0912 34.9201 20.2922 34.9201 20.4902C34.9201 26.9822 29.9806 33.6977 21.7141 33.6977C20.2397 33.6984 18.7758 33.4509 17.3836 32.9657C19.0509 32.6462 20.6173 31.9312 21.9511 30.8807C22.0809 30.7784 22.1759 30.6384 22.2232 30.4799C22.2705 30.3215 22.2676 30.1523 22.2151 29.9956C22.1626 29.8388 22.0629 29.7021 21.9297 29.6041C21.7965 29.5061 21.6364 29.4517 21.4711 29.4482C20.8243 29.4359 20.1895 29.2717 19.6178 28.9689C19.0462 28.6662 18.5537 28.2333 18.1801 27.7052C18.5596 27.6797 18.9316 27.6167 19.2931 27.5192C19.468 27.4724 19.6219 27.3677 19.7297 27.2221C19.8375 27.0765 19.8927 26.8987 19.8865 26.7177C19.8802 26.5367 19.8128 26.3632 19.6952 26.2254C19.5776 26.0877 19.4168 25.9938 19.2391 25.9592C18.5086 25.8106 17.8323 25.4662 17.2824 24.9629C16.7326 24.4596 16.3299 23.8162 16.1176 23.1017C16.5166 23.2022 16.9261 23.2607 17.3356 23.2742C17.6881 23.2727 18.0151 23.0567 18.1246 22.7177C18.2341 22.3787 18.1051 22.0052 17.8066 21.8072C17.1008 21.337 16.5573 20.6603 16.2505 19.8697C15.9436 19.0791 15.8883 18.213 16.0921 17.3897C18.6976 20.0632 22.2159 21.6552 25.9441 21.8477C26.2081 21.8492 26.4391 21.7547 26.5996 21.5612C26.7601 21.3677 26.8216 21.1112 26.7646 20.8652C26.5594 19.9817 26.6512 19.0552 27.0256 18.2291C27.4001 17.403 28.0364 16.7234 28.8361 16.2954C29.6357 15.8674 30.5542 15.7148 31.4493 15.8614C32.3444 16.008 33.1662 16.4455 33.7876 17.1062C33.8807 17.2056 33.9976 17.2796 34.1272 17.3213C34.2568 17.3631 34.395 17.3711 34.5286 17.3447C34.7761 17.2952 35.0206 17.2382 35.2621 17.1722C35.1532 17.2537 35.04 17.3293 34.9231 17.3987C34.7675 17.494 34.6491 17.6394 34.5872 17.811C34.5254 17.9827 34.5239 18.1702 34.5829 18.3428C34.642 18.5154 34.7581 18.6627 34.912 18.7605C35.066 18.8583 35.2487 18.9007 35.4301 18.8807L35.7031 18.8462C35.5527 18.9701 35.3981 19.0886 35.2396 19.2017V19.2017Z" fill="white"/>
</g>
<defs>
<clipPath id="clip0_271_28">
<rect width="48" height="48" fill="white" transform="translate(0.666016)"/>
</clipPath>
</defs>
</svg>
