<svg width="48" height="48" viewBox="0 0 48 48" fill="none" xmlns="http://www.w3.org/2000/svg">
<path d="M24.0035 1.37503e-07C19.802 -0.000449533 15.674 1.10201 12.0321 3.19716C8.39029 5.29231 5.36228 8.30673 3.25084 11.939C1.13939 15.5713 0.0185025 19.6943 0.000227111 23.8956C-0.0180483 28.0969 1.06693 32.2295 3.1467 35.88L0.986608 43.464C0.84815 43.9564 0.843358 44.4769 0.972724 44.9718C1.10209 45.4667 1.36095 45.9182 1.72268 46.28C2.08441 46.6417 2.53595 46.9005 3.03089 47.0299C3.52582 47.1592 4.04628 47.1544 4.53875 47.016L12.1231 44.856C15.3168 46.6745 18.8855 47.7352 22.5541 47.9565C26.2226 48.1777 29.893 47.5536 33.2821 46.1321C36.6713 44.7107 39.6887 42.5299 42.1018 39.758C44.5149 36.9861 46.2592 33.6971 47.2001 30.1445C48.141 26.5919 48.2535 22.8707 47.5288 19.2678C46.8042 15.6649 45.2617 12.2765 43.0205 9.36395C40.7792 6.45137 37.899 4.09238 34.6018 2.46887C31.3047 0.845355 27.6787 0.000690847 24.0035 1.37503e-07V1.37503e-07ZM24.0035 46.08C20.0323 46.0892 16.1332 45.0191 12.7231 42.984C12.5742 42.9082 12.4101 42.8672 12.2431 42.864H11.9791L4.01073 45.144C3.84791 45.1877 3.67646 45.1877 3.51361 45.1441C3.35077 45.1005 3.20227 45.0148 3.08307 44.8956C2.96387 44.7764 2.87815 44.6279 2.83455 44.4651C2.79095 44.3023 2.79099 44.1308 2.83468 43.968L5.11478 36C5.18228 35.749 5.14776 35.4816 5.01877 35.256C2.53513 31.0648 1.50742 26.1699 2.09572 21.3338C2.68402 16.4977 4.85531 11.9919 8.27136 8.5183C11.6874 5.04473 16.1564 2.79842 20.9822 2.12927C25.808 1.46012 30.7196 2.40572 34.9519 4.81876C39.1843 7.2318 42.4997 10.9768 44.3818 15.4704C46.2639 19.9639 46.6069 24.9538 45.3574 29.6626C44.108 34.3714 41.3362 38.5349 37.4739 41.5043C33.6115 44.4738 28.8755 46.0825 24.0035 46.08V46.08ZM36.124 28.44L31.2278 25.656C30.7814 25.4003 30.275 25.2677 29.7605 25.272C29.246 25.2762 28.7419 25.417 28.2997 25.68L24.9876 27.672C22.9925 26.6373 21.3661 25.011 20.3314 23.016L22.3235 19.704C22.5865 19.2618 22.7273 18.7577 22.7315 18.2432C22.7357 17.7288 22.6032 17.2224 22.3475 16.776L19.5634 11.88C19.3322 11.4796 18.9999 11.1469 18.5997 10.9153C18.1996 10.6836 17.7456 10.5611 17.2833 10.56C15.2505 10.56 13.3006 11.3658 11.8609 12.8009C10.4213 14.236 9.60931 16.1833 9.60296 18.216C9.5998 20.8655 10.119 23.4896 11.1307 25.9383C12.1425 28.387 13.627 30.6122 15.4994 32.4868C17.3719 34.3614 19.5954 35.8485 22.043 36.8631C24.4906 37.8778 27.1142 38.4 29.7638 38.4H29.7878C31.8206 38.3936 33.7679 37.5817 35.2031 36.1421C36.6382 34.7025 37.4441 32.7527 37.4441 30.72C37.443 30.2577 37.3205 29.8037 37.0888 29.4036C36.8571 29.0034 36.5245 28.6712 36.124 28.44V28.44ZM29.7878 36.48H29.7638C24.9238 36.4736 20.2843 34.5466 16.8642 31.1221C13.4441 27.6976 11.523 23.0558 11.523 18.216C11.5294 16.6925 12.1391 15.2336 13.2186 14.1586C14.2982 13.0835 15.7597 12.48 17.2833 12.48C17.4062 12.4817 17.5264 12.5159 17.6318 12.5791C17.7372 12.6423 17.824 12.7324 17.8833 12.84L20.6914 17.736C20.7733 17.887 20.8162 18.0562 20.8162 18.228C20.8162 18.3998 20.7733 18.5689 20.6914 18.72L18.4353 22.464C18.3522 22.5956 18.3041 22.7463 18.2957 22.9018C18.2873 23.0572 18.3189 23.2122 18.3873 23.352C19.6373 26.137 21.8664 28.3661 24.6516 29.616C24.7914 29.6844 24.9464 29.716 25.1018 29.7076C25.2573 29.6992 25.408 29.6511 25.5396 29.568L29.2838 27.312C29.4348 27.2301 29.6039 27.1872 29.7758 27.1872C29.9476 27.1872 30.1167 27.2301 30.2678 27.312L35.164 30.12C35.2716 30.1793 35.3616 30.2661 35.4249 30.3715C35.4881 30.4769 35.5223 30.5971 35.524 30.72C35.524 32.2435 34.9204 33.7049 33.8454 34.7845C32.7703 35.864 31.3113 36.4736 29.7878 36.48V36.48Z" fill="white"/>
</svg>
