<svg width="513" height="177" viewBox="0 0 513 177" fill="none" xmlns="http://www.w3.org/2000/svg">
<path d="M72.8885 78.7363H54.0089V78.0205C54.0089 75.2169 55.1721 73.6958 57.4985 73.4572L60.4512 73.2782L57.23 28.5399L40.8558 68.536C38.947 69.1325 37.2767 69.2518 35.8451 68.8939L18.4866 30.2399L15.5339 73.0993L22.5131 73.6362C22.871 77.0363 21.7376 78.7363 19.113 78.7363H1.66498V78.0205C1.66498 75.2169 2.82818 73.6958 5.15458 73.4572L8.9126 73.2782L12.4022 23.3502L6.2283 22.8134C5.87039 19.3536 7.00376 17.6237 9.62841 17.6237H23.1394L39.8716 55.2039L54.6352 17.6237H69.041C71.7253 17.6237 72.8885 19.3536 72.5306 22.8134L66.2672 23.3502L70.0252 73.0098L76.2886 73.6362C76.6465 77.0363 75.5131 78.7363 72.8885 78.7363ZM99.7651 78.7363H80.8855V78.0205C80.8855 75.2766 82.0487 73.7853 84.3751 73.5467L87.5067 73.3677V39.8139L83.5698 39.3666C81.6609 39.1876 80.7065 37.577 80.7065 34.5348L96.6334 32.7453V73.1888L103.165 73.7256C103.523 77.0661 102.39 78.7363 99.7651 78.7363ZM97.1702 21.8291C97.1702 23.4993 96.6035 24.9011 95.4702 26.0345C94.3964 27.1082 93.0245 27.6451 91.3542 27.6451C89.7437 27.6451 88.3717 27.1082 87.2383 26.0345C86.1646 24.9011 85.6277 23.4993 85.6277 21.8291C85.6277 20.1589 86.1646 18.7869 87.2383 17.7132C88.3717 16.5798 89.7437 16.0131 91.3542 16.0131C93.0245 16.0131 94.3964 16.5798 95.4702 17.7132C96.6035 18.7869 97.1702 20.1589 97.1702 21.8291ZM156.727 78.7363H138.027V78.0205C138.027 75.2766 139.19 73.7853 141.516 73.5467L144.559 73.3677V51.1775C144.559 47.3598 143.753 44.6159 142.143 42.9456C140.592 41.2754 138.087 40.4403 134.627 40.4403C131.167 40.4403 127.677 42.021 124.158 45.1825V73.1888L130.69 73.7256C131.048 77.0661 129.914 78.7363 127.29 78.7363H108.41V78.0205C108.41 75.2766 109.573 73.7853 111.9 73.5467L115.031 73.3677V22.5449L111.094 22.187C109.186 21.9484 108.231 20.308 108.231 17.2658L124.158 15.3868V38.6507C128.334 34.7138 132.718 32.7453 137.311 32.7453C141.964 32.7453 145.841 34.2664 148.943 37.3086C152.045 40.2912 153.596 44.9439 153.596 51.267L153.685 73.1888L160.217 73.7256C160.575 77.0661 159.412 78.7363 156.727 78.7363ZM206.897 75.1573C206.897 78.4381 204.719 80.0785 200.365 80.0785C196.07 80.0785 193.416 78.4381 192.401 75.1573C188.524 78.4381 184.289 80.0785 179.696 80.0785C175.103 80.0785 171.553 79.0048 169.048 76.8573C166.543 74.6502 165.29 71.6378 165.29 67.8202C165.29 64.0025 166.722 60.841 169.585 58.3356C172.508 55.8303 177.19 54.5776 183.633 54.5776C186.436 54.5776 189.18 54.8162 191.865 55.2934V50.2827C191.865 42.707 188.912 38.9192 183.006 38.9192C180.62 38.9192 178.712 39.7245 177.28 41.335C175.908 42.9456 175.162 44.9738 175.043 47.4195C173.015 47.5984 171.315 47.2405 169.943 46.3457C168.63 45.451 167.974 44.079 167.974 42.2298C167.974 39.4859 169.376 37.2191 172.18 35.4296C175.043 33.64 178.89 32.7453 183.722 32.7453C188.614 32.7453 192.7 34.0576 195.981 36.6823C199.321 39.3069 200.991 43.6614 200.991 49.7459V74.4414L206.897 75.1573ZM191.865 61.5568C189.479 60.5427 186.854 60.0357 183.991 60.0357C181.187 60.0357 178.98 60.6322 177.369 61.8252C175.759 63.0182 174.953 64.7183 174.953 66.9254C174.953 69.0728 175.58 70.7431 176.832 71.9361C178.085 73.1291 180.113 73.7256 182.917 73.7256C185.78 73.7256 188.763 72.6221 191.865 70.415V61.5568ZM230.31 78.7363H211.431V78.0205C211.431 75.2766 212.594 73.7853 214.92 73.5467L218.052 73.3677V39.8139L214.115 39.3666C212.206 39.1876 211.252 37.577 211.252 34.5348L227.179 32.7453V73.1888L233.71 73.7256C234.068 77.0661 232.935 78.7363 230.31 78.7363ZM227.715 21.8291C227.715 23.4993 227.149 24.9011 226.015 26.0345C224.942 27.1082 223.57 27.6451 221.899 27.6451C220.289 27.6451 218.917 27.1082 217.783 26.0345C216.71 24.9011 216.173 23.4993 216.173 21.8291C216.173 20.1589 216.71 18.7869 217.783 17.7132C218.917 16.5798 220.289 16.0131 221.899 16.0131C223.57 16.0131 224.942 16.5798 226.015 17.7132C227.149 18.7869 227.715 20.1589 227.715 21.8291ZM265.618 78.7363V77.4121C265.618 75.7935 265.839 74.7268 266.28 74.2118C266.721 73.6968 267.089 73.2922 267.383 72.9979C268.046 72.4829 268.892 72.2254 269.922 72.2254L273.784 72.0047V10.2061L265.728 9.54396C265.581 5.42405 266.832 3.3641 269.48 3.3641H294.42C311.856 3.3641 320.574 9.76467 320.574 22.5658C320.574 28.2307 318.846 32.9391 315.388 36.6912C311.93 40.4433 307.038 42.9446 300.711 44.1953C305.125 52.9501 309.723 59.7553 314.505 64.6109C319.287 69.4665 323.775 71.8943 327.968 71.8943C327.747 74.3957 326.791 76.4557 325.099 78.0742C323.48 79.6192 321.237 80.3916 318.367 80.3916C315.572 80.3916 312.261 78.442 308.435 74.5429C301.299 67.1859 295.524 57.3643 291.11 45.0782C288.608 45.0782 286.696 45.0414 285.371 44.9678V71.784L294.31 72.4461C294.678 76.6396 293.28 78.7363 290.117 78.7363H265.618ZM285.371 9.65431V38.7879C286.328 38.8615 287.652 38.8983 289.344 38.8983C302.145 38.8983 308.546 33.7852 308.546 23.559C308.546 13.6271 303.102 8.91861 292.213 9.4336L285.592 9.65431H285.371ZM383.628 74.3221C383.628 78.3685 380.943 80.3916 375.572 80.3916C370.275 80.3916 367.002 78.3685 365.751 74.3221C360.969 78.3685 355.745 80.3916 350.081 80.3916C344.416 80.3916 340.038 79.0674 336.948 76.4189C333.858 73.6968 332.313 69.9815 332.313 65.2731C332.313 60.5646 334.079 56.6654 337.61 53.5755C341.215 50.4855 346.991 48.9406 354.936 48.9406C358.394 48.9406 361.778 49.2348 365.089 49.8234V43.6435C365.089 34.3002 361.447 29.6285 354.164 29.6285C351.221 29.6285 348.867 30.6217 347.101 32.6081C345.409 34.5945 344.489 37.0958 344.342 40.1122C341.841 40.3329 339.744 39.8915 338.052 38.7879C336.433 37.6844 335.624 35.9923 335.624 33.7116C335.624 30.3274 337.353 27.5318 340.811 25.3247C344.342 23.1176 349.087 22.014 355.046 22.014C361.079 22.014 366.119 23.6326 370.165 26.8696C374.285 30.1067 376.345 35.4773 376.345 42.9814V73.4393L383.628 74.3221ZM365.089 57.5482C362.146 56.2975 358.909 55.6722 355.378 55.6722C351.92 55.6722 349.198 56.4079 347.211 57.8793C345.225 59.3507 344.232 61.4474 344.232 64.1695C344.232 66.818 345.004 68.878 346.549 70.3494C348.094 71.8208 350.595 72.5565 354.053 72.5565C357.585 72.5565 361.263 71.1954 365.089 68.4733V57.5482ZM445.832 74.1014C445.832 78.3685 443 80.502 437.335 80.502C431.744 80.502 428.506 78.2213 427.624 73.66C422.768 78.1478 417.287 80.3916 411.181 80.3916C405.148 80.3916 399.998 78.2213 395.731 73.8807C391.464 69.4665 389.257 62.6245 389.11 53.3548C388.963 44.085 391.207 36.5441 395.841 30.7321C400.55 24.92 407.282 22.014 416.036 22.014C420.156 22.014 423.945 22.7865 427.403 24.3315V9.32325L422.547 8.88183C419.899 8.58755 418.722 6.56438 419.016 2.81232L438.659 0.494874V73.3289L445.832 74.1014ZM427.403 34.7048C423.724 31.4677 419.457 29.8492 414.602 29.8492C409.746 29.8492 406.215 31.9092 404.008 36.0291C401.874 40.0754 400.807 45.2253 400.807 51.4787C400.807 57.6586 401.985 62.6245 404.339 66.3766C406.767 70.0551 410.151 71.8943 414.491 71.8943C418.832 71.8943 423.136 69.9815 427.403 66.1559V34.7048ZM483.182 30.2906V28.9664C483.182 27.2007 483.403 26.0604 483.844 25.5454C484.286 25.0304 484.617 24.6625 484.837 24.4418C485.352 23.9268 486.162 23.6694 487.265 23.6694H502.935V71.784L506.467 72.0047C508.674 72.0783 509.777 74.1014 509.777 78.0742L494.99 79.5088L493.004 73.4393C487.78 78.0742 482.373 80.3916 476.781 80.3916C471.264 80.3916 466.555 78.5524 462.656 74.8739C458.757 71.1219 456.807 65.3466 456.807 57.5482V30.5113L448.641 30.2906V29.2974C448.641 25.5454 450.039 23.6694 452.834 23.6694H468.063V57.5482C468.063 66.9652 471.926 71.6736 479.651 71.6736C483.844 71.6736 487.854 70.1287 491.679 67.0387V30.5113L483.182 30.2906Z" fill="#F9F5F4"/>
<path d="M33.8041 94.6656H51.2789C57.8823 94.6656 62.9019 96.0614 66.3378 98.8531C69.7737 101.645 71.4917 105.376 71.4917 110.047C71.4917 116.059 69.4784 120.569 65.452 123.575C61.4792 126.528 56.0569 128.005 49.1851 128.005C47.9503 128.005 46.3129 127.951 44.2728 127.844V144.996L50.6346 145.479C50.9031 148.164 50.0441 149.506 48.0577 149.506H31.1466V148.862C31.1466 146.66 32.0861 145.479 33.9651 145.318L37.2668 145.157V99.1752L31.3882 98.692C31.2271 96.0077 32.0324 94.6656 33.8041 94.6656ZM44.2728 123.817L48.2993 123.898C58.8754 123.898 64.1635 119.576 64.1635 110.932C64.1635 102.235 59.0902 98.1551 48.9435 98.692L44.2728 98.8531V123.817ZM119.127 149.506H103.182V148.862C103.182 148.325 103.289 147.734 103.504 147.09C103.933 146.124 104.765 145.587 106 145.479L108.98 145.318V125.186C108.98 117.992 105.973 114.395 99.9606 114.395C97.8131 114.395 95.961 114.798 94.4041 115.603C92.8472 116.355 91.1561 117.536 89.3307 119.146V145.157L95.2899 145.64C95.5583 148.217 94.6725 149.506 92.6324 149.506H76.5266V148.862C76.5266 148.325 76.6608 147.734 76.9293 147.09C77.3051 146.124 78.1104 145.587 79.3451 145.479L82.4858 145.318V98.8531L78.6204 98.4504C77.1172 98.2894 76.3656 96.9741 76.3656 94.5045L89.3307 92.8939V113.993C93.0888 110.342 97.0347 108.517 101.169 108.517C105.356 108.517 108.819 109.859 111.557 112.543C114.295 115.174 115.691 119.334 115.744 125.025V145.157L121.784 145.64C122.052 148.217 121.167 149.506 119.127 149.506ZM136.596 117.938C134.77 120.945 133.858 124.891 133.858 129.776C133.858 134.662 134.77 138.608 136.596 141.614C138.421 144.567 141.025 146.043 144.407 146.043C147.789 145.989 150.42 144.513 152.299 141.614C154.178 138.661 155.117 134.769 155.117 129.937C155.117 125.052 154.232 121.052 152.46 117.938C150.688 114.825 148.058 113.295 144.568 113.348C141.132 113.348 138.475 114.878 136.596 117.938ZM145.132 108.517C149.963 108.517 154.017 110.154 157.292 113.429C160.566 116.704 162.231 121.777 162.284 128.649C162.338 135.467 160.728 140.862 157.453 144.835C154.178 148.754 149.695 150.714 144.004 150.714C138.367 150.714 134.072 148.996 131.12 145.56C128.221 142.07 126.744 137.024 126.691 130.42C126.637 123.817 128.247 118.529 131.522 114.556C134.851 110.53 139.387 108.517 145.132 108.517ZM179.484 113.993V137.346C179.484 140.084 179.833 142.097 180.531 143.386C181.228 144.62 182.49 145.238 184.315 145.238C186.141 145.238 187.698 145.023 188.986 144.594C190.328 144.11 191.912 143.144 193.737 141.695C194.113 141.802 194.462 142.097 194.784 142.58C195.106 143.064 195.267 143.6 195.267 144.191C195.267 145.855 193.898 147.385 191.16 148.781C188.422 150.123 185.738 150.794 183.107 150.794C179.135 150.794 176.397 149.667 174.894 147.412C173.444 145.104 172.719 141.856 172.719 137.668V113.993H166.599C166.438 111.147 167.351 109.724 169.337 109.724H172.719V99.9805L179.484 98.692V109.724H194.382C194.543 112.14 193.872 113.563 192.368 113.993H179.484ZM209.261 117.938C207.435 120.945 206.523 124.891 206.523 129.776C206.523 134.662 207.435 138.608 209.261 141.614C211.086 144.567 213.69 146.043 217.072 146.043C220.454 145.989 223.085 144.513 224.964 141.614C226.843 138.661 227.782 134.769 227.782 129.937C227.782 125.052 226.896 121.052 225.125 117.938C223.353 114.825 220.723 113.295 217.233 113.348C213.797 113.348 211.14 114.878 209.261 117.938ZM217.797 108.517C222.628 108.517 226.682 110.154 229.957 113.429C233.231 116.704 234.896 121.777 234.949 128.649C235.003 135.467 233.392 140.862 230.118 144.835C226.843 148.754 222.36 150.714 216.669 150.714C211.032 150.714 206.737 148.996 203.785 145.56C200.886 142.07 199.409 137.024 199.355 130.42C199.302 123.817 200.912 118.529 204.187 114.556C207.516 110.53 212.052 108.517 217.797 108.517ZM255.209 137.346C253.92 137.346 252.605 137.212 251.263 136.943C249.974 138.554 249.384 139.735 249.491 140.487C249.598 141.023 250.216 141.372 251.343 141.533C252.524 141.695 254.538 141.829 257.383 141.936C263.611 142.043 268.066 142.822 270.751 144.271C273.435 145.721 274.777 148.325 274.777 152.083C274.777 156.807 272.979 160.619 269.382 163.518C265.839 166.417 261.356 167.866 255.933 167.866C250.511 167.866 246.404 166.846 243.612 164.806C240.821 162.766 239.425 160.028 239.425 156.592C239.425 153.157 241.358 149.855 245.223 146.687C244.096 145.882 243.532 144.567 243.532 142.741C243.532 140.862 244.874 138.473 247.558 135.574C243.532 133.373 241.385 129.615 241.116 124.3C240.901 119.898 242.163 116.167 244.901 113.107C247.693 110.047 251.424 108.517 256.095 108.517C259.369 108.517 262.107 109.241 264.308 110.691L274.375 108.033C274.858 108.678 275.126 109.59 275.18 110.771C275.234 111.899 274.965 112.731 274.375 113.268C273.569 113.697 271.315 113.858 267.61 113.751C269.221 116.059 269.972 119.2 269.865 123.173C269.811 127.092 268.469 130.447 265.839 133.239C263.262 135.977 259.718 137.346 255.209 137.346ZM255.531 113.026C253.115 113.08 251.182 114.046 249.733 115.925C248.337 117.804 247.639 120.193 247.639 123.092C247.639 125.991 248.31 128.38 249.652 130.259C251.048 132.138 252.954 133.051 255.37 132.997C257.839 132.944 259.772 131.977 261.168 130.098C262.617 128.166 263.342 125.777 263.342 122.931C263.342 120.032 262.644 117.643 261.248 115.764C259.906 113.885 258 112.973 255.531 113.026ZM244.901 155.143C244.901 157.505 245.948 159.304 248.042 160.538C250.135 161.773 253.088 162.391 256.9 162.391C260.712 162.391 263.825 161.558 266.241 159.894C268.657 158.23 269.865 156.217 269.865 153.854C269.865 151.331 267.986 149.774 264.228 149.184C261.758 148.808 258.886 148.566 255.611 148.459C252.336 148.352 250.001 148.191 248.605 147.976C246.136 150.445 244.901 152.834 244.901 155.143ZM291.749 115.2C293.306 113.483 295.265 111.952 297.627 110.61C300.043 109.214 302.03 108.517 303.587 108.517C305.197 108.517 306.512 108.946 307.532 109.805C308.552 110.664 309.063 112.221 309.063 114.476C309.063 116.731 308.499 118.475 307.371 119.71C306.566 120.354 305.331 120.596 303.667 120.435C303.667 116.516 302.647 114.556 300.607 114.556C298.03 114.556 295.131 116.355 291.91 119.952V145.157L298.674 145.64C298.943 148.217 298.057 149.506 296.017 149.506H279.186V148.862C279.186 148.325 279.32 147.734 279.589 147.09C279.965 146.124 280.77 145.587 282.005 145.479L285.065 145.318V114.556L280.958 114.154C279.669 113.993 279.025 112.758 279.025 110.449L290.943 108.919L291.507 115.2H291.749ZM349.002 146.687C349.002 149.425 347.204 150.794 343.607 150.794C340.064 150.794 337.916 149.211 337.165 146.043C333.675 149.157 329.81 150.714 325.568 150.714C321.381 150.714 318.187 149.747 315.985 147.815C313.784 145.882 312.684 143.251 312.684 139.923C312.684 136.594 313.919 133.803 316.388 131.548C318.911 129.293 323.045 128.166 328.79 128.166C331.689 128.166 334.373 128.461 336.843 129.051V123.495C336.843 116.731 333.997 113.348 328.306 113.348C325.73 113.348 323.797 114.127 322.508 115.684C321.274 117.187 320.602 118.985 320.495 121.079C318.938 121.24 317.65 120.972 316.63 120.274C315.61 119.576 315.1 118.422 315.1 116.811C315.1 114.449 316.308 112.489 318.723 110.932C321.193 109.322 324.387 108.517 328.306 108.517C331.367 108.517 333.863 108.973 335.796 109.886C337.728 110.798 339.205 111.765 340.225 112.785C342.533 115.2 343.687 118.636 343.687 123.092V146.043L349.002 146.687ZM336.843 134.205C334.48 133.078 331.85 132.514 328.951 132.514C326.052 132.514 323.851 133.105 322.347 134.286C320.844 135.413 320.092 137.024 320.092 139.118C320.092 141.158 320.71 142.768 321.945 143.949C323.179 145.077 324.924 145.64 327.179 145.64C330.722 145.64 333.943 144.406 336.843 141.936V134.205ZM351.323 166.256C351.323 164.001 352.262 162.874 354.141 162.874L357.282 162.632V114.556L353.255 114.154C351.913 113.993 351.242 112.758 351.242 110.449L362.758 109L363.724 114.154C367.912 110.396 372.153 108.517 376.448 108.517C380.796 108.517 384.474 110.154 387.48 113.429C390.54 116.65 392.124 121.616 392.231 128.327C392.392 134.984 390.782 140.379 387.4 144.513C384.017 148.647 379.186 150.714 372.904 150.714C369.683 150.714 366.731 150.07 364.046 148.781V162.471L370.086 162.954C370.354 165.531 369.469 166.82 367.428 166.82H351.323V166.256ZM364.046 141.936C366.838 144.459 370.166 145.721 374.032 145.721C377.897 145.721 380.689 144.191 382.407 141.131C384.179 138.071 385.064 134.205 385.064 129.535C385.064 124.864 384.152 121.106 382.326 118.261C380.555 115.415 377.79 113.993 374.032 113.993C372.207 113.993 370.542 114.368 369.039 115.12C367.59 115.872 365.925 117.053 364.046 118.663V141.936ZM441.4 149.506H425.455V148.862C425.455 148.325 425.563 147.734 425.777 147.09C426.207 146.124 427.039 145.587 428.274 145.479L431.253 145.318V125.186C431.253 117.992 428.247 114.395 422.234 114.395C420.087 114.395 418.235 114.798 416.678 115.603C415.121 116.355 413.43 117.536 411.604 119.146V145.157L417.563 145.64C417.832 148.217 416.946 149.506 414.906 149.506H398.8V148.862C398.8 148.325 398.934 147.734 399.203 147.09C399.579 146.124 400.384 145.587 401.619 145.479L404.759 145.318V98.8531L400.894 98.4504C399.391 98.2894 398.639 96.9741 398.639 94.5045L411.604 92.8939V113.993C415.362 110.342 419.308 108.517 423.442 108.517C427.63 108.517 431.092 109.859 433.83 112.543C436.568 115.174 437.964 119.334 438.018 125.025V145.157L444.058 145.64C444.326 148.217 443.44 149.506 441.4 149.506ZM475.619 109.724H486.571V110.369C486.571 112.409 485.39 113.563 483.028 113.831L468.935 148.54H468.855C465.848 156.056 463.352 160.995 461.366 163.357C460.507 164.377 459.433 165.316 458.144 166.175C456.856 167.034 455.38 167.464 453.715 167.464C452.105 167.464 450.763 166.981 449.689 166.014C448.615 165.102 448.078 164.001 448.078 162.713C448.078 161.424 448.427 160.377 449.125 159.572C449.823 158.82 450.602 158.445 451.461 158.445C452.373 158.445 452.964 158.498 453.232 158.606C452.695 160.914 453.34 162.068 455.165 162.068C456.561 162.068 458.144 160.458 459.916 157.237C461.688 154.069 463.245 150.714 464.587 147.171L450.414 114.073H450.333L446.226 113.59C445.958 111.013 446.817 109.724 448.803 109.724H463.298V110.369C463.298 112.462 462.359 113.59 460.48 113.751L458.064 113.912L467.888 138.795L477.391 114.073L473.042 113.59C472.774 111.013 473.633 109.724 475.619 109.724Z" fill="#E14A4A"/>
</svg>
